<svg xmlns="http://www.w3.org/2000/svg" viewBox="0 0 720 560" role="img" aria-labelledby="title desc">
  <title id="title">Cloud platform architecture illustration</title>
  <desc id="desc">A structured cloud platform with CI/CD, Kubernetes, Terraform, monitoring, and security components.</desc>
  <defs>
    <linearGradient id="panel" x1="0" x2="1" y1="0" y2="1">
      <stop offset="0" stop-color="#ffffff"/>
      <stop offset="1" stop-color="#eef6f4"/>
    </linearGradient>
    <filter id="shadow" x="-20%" y="-20%" width="140%" height="140%">
      <feDropShadow dx="0" dy="16" stdDeviation="14" flood-color="#14213d" flood-opacity="0.14"/>
    </filter>
  </defs>
  <rect width="720" height="560" rx="24" fill="#f7f4ef"/>
  <path d="M96 384c-34 0-61-27-61-61 0-30 22-56 52-60 9-63 63-111 128-111 43 0 81 21 105 53 18-12 39-19 62-19 55 0 101 40 110 92 50 5 89 47 89 98 0 54-44 98-98 98H96z" fill="#dff1ed"/>
  <path d="M112 384c-24 0-43-19-43-43 0-21 16-40 37-42 7-54 53-95 108-95 40 0 75 22 94 55 17-18 40-29 67-29 48 0 88 37 92 84 42 6 74 42 74 86 0 47-38 85-85 85H112z" fill="#ffffff" filter="url(#shadow)"/>
  <g fill="none" stroke="#a7bac7" stroke-width="4" stroke-linecap="round">
    <path d="M202 324h316"/>
    <path d="M360 250v174"/>
    <path d="M246 250v74"/>
    <path d="M474 250v74"/>
  </g>
  <g filter="url(#shadow)">
    <rect x="166" y="118" width="160" height="96" rx="12" fill="url(#panel)" stroke="#d9e1e8" stroke-width="2"/>
    <rect x="394" y="118" width="160" height="96" rx="12" fill="url(#panel)" stroke="#d9e1e8" stroke-width="2"/>
    <rect x="166" y="330" width="160" height="96" rx="12" fill="url(#panel)" stroke="#d9e1e8" stroke-width="2"/>
    <rect x="394" y="330" width="160" height="96" rx="12" fill="url(#panel)" stroke="#d9e1e8" stroke-width="2"/>
  </g>
  <g font-family="Segoe UI, Arial, sans-serif" font-weight="800" fill="#14213d">
    <text x="246" y="154" font-size="20" text-anchor="middle">CI/CD</text>
    <text x="246" y="184" font-size="15" text-anchor="middle" fill="#5f6b7a">Cloud Build</text>
    <text x="474" y="154" font-size="20" text-anchor="middle">Kubernetes</text>
    <text x="474" y="184" font-size="15" text-anchor="middle" fill="#5f6b7a">GKE / EKS</text>
    <text x="246" y="366" font-size="20" text-anchor="middle">Terraform</text>
    <text x="246" y="396" font-size="15" text-anchor="middle" fill="#5f6b7a">IaC Modules</text>
    <text x="474" y="366" font-size="20" text-anchor="middle">Monitoring</text>
    <text x="474" y="396" font-size="15" text-anchor="middle" fill="#5f6b7a">Grafana Alerts</text>
  </g>
  <circle cx="360" cy="324" r="48" fill="#0f766e" filter="url(#shadow)"/>
  <text x="360" y="318" font-family="Segoe UI, Arial, sans-serif" font-size="16" font-weight="900" fill="#ffffff" text-anchor="middle">Cloud</text>
  <text x="360" y="340" font-family="Segoe UI, Arial, sans-serif" font-size="16" font-weight="900" fill="#ffffff" text-anchor="middle">Platform</text>
  <g fill="#f4a261">
    <circle cx="246" cy="250" r="10"/>
    <circle cx="474" cy="250" r="10"/>
    <circle cx="246" cy="324" r="10"/>
    <circle cx="474" cy="324" r="10"/>
  </g>
  <g fill="#2f6fed" opacity="0.9">
    <rect x="100" y="78" width="34" height="34" rx="8"/>
    <rect x="586" y="448" width="34" height="34" rx="8"/>
    <rect x="584" y="88" width="24" height="24" rx="6"/>
    <rect x="96" y="452" width="24" height="24" rx="6"/>
  </g>
</svg>
